<?xml version="1.0" standalone="no"?>
<!DOCTYPE svg PUBLIC "-//W3C//DTD SVG 20010904//EN"
 "http://www.w3.org/TR/2001/REC-SVG-20010904/DTD/svg10.dtd">
<svg version="1.0" xmlns="http://www.w3.org/2000/svg"
 width="280.000000pt" height="280.000000pt" viewBox="0 0 280.000000 280.000000"
 preserveAspectRatio="xMidYMid meet">
<metadata>
Created by potrace 1.11, written by Peter Selinger 2001-2013
</metadata>
<g transform="translate(0.000000,280.000000) scale(0.100000,-0.100000)"
fill="#000000" stroke="none">
<path d="M1251 2476 c-43 -148 -70 -260 -65 -265 5 -4 59 -25 119 -46 61 -21
112 -39 113 -41 2 -1 -12 -45 -31 -96 -56 -148 -315 -826 -348 -907 -16 -40
-29 -80 -29 -88 0 -12 -7 -14 -27 -9 -16 3 -51 9 -80 12 -64 8 -58 28 -74
-251 -6 -116 -14 -214 -17 -220 -2 -5 2 -3 10 5 16 16 200 318 246 403 16 29
155 273 309 542 l282 490 91 324 c71 253 88 326 78 332 -40 25 -238 61 -366
66 l-137 6 -74 -257z"/>
</g>
</svg>
